SplineFontDB: 3.0
FontName: RabbidHighwaySignII
FullName: Rabbid Highway Sign II
FamilyName: Rabbid Highway Sign II
Weight: Regular
Copyright: Copyright (c) 2015, Robert Jablonski @ Cannot Into Space Fonts, all rights reserved.
Version: 0.227
ItalicAngle: 0
UnderlinePosition: -150
UnderlineWidth: 50
Ascent: 750
Descent: 250
InvalidEm: 0
sfntRevision: 0x00003a1d
LayerCount: 2
Layer: 0 0 "Back" 1
Layer: 1 0 "Fore" 0
XUID: [1021 908 -2008021153 8488084]
StyleMap: 0x0000
FSType: 0
OS2Version: 4
OS2_WeightWidthSlopeOnly: 0
OS2_UseTypoMetrics: 1
CreationTime: -643139946
ModificationTime: 1447780772
PfmFamily: 33
TTFWeight: 400
TTFWidth: 5
LineGap: 0
VLineGap: 0
Panose: 0 0 8 0 0 0 0 0 0 0
OS2TypoAscent: 750
OS2TypoAOffset: 0
OS2TypoDescent: -250
OS2TypoDOffset: 0
OS2TypoLinegap: 0
OS2WinAscent: 900
OS2WinAOffset: 0
OS2WinDescent: 350
OS2WinDOffset: 0
HheadAscent: 900
HheadAOffset: 0
HheadDescent: -350
HheadDOffset: 0
OS2SubXSize: 650
OS2SubYSize: 600
OS2SubXOff: 0
OS2SubYOff: 75
OS2SupXSize: 650
OS2SupYSize: 600
OS2SupXOff: 0
OS2SupYOff: 350
OS2StrikeYSize: 50
OS2StrikeYPos: 307
OS2CapHeight: 825
OS2XHeight: 513
OS2FamilyClass: 2051
OS2Vendor: 'CiSf'
OS2CodePages: 20000000.00000000
OS2UnicodeRanges: 00000027.00000000.00000000.00000000
MarkAttachClasses: 1
DEI: 91125
LangName: 1033 "" "" "" "Rabbid Highway Sign II v0.227" "" "" "" "" "Cannot Into Space Fonts" "" "" "cannotintospacefonts.blogspot.com" "" "SIL Open Font License (OFL)" "http://scripts.sil.org/OFL" "" "" "" "" "Confused Cats Run Along on the abandoned Railroad Tracks, Drinking Tea and Wearing Hats."
Encoding: UnicodeBmp
UnicodeInterp: none
NameList: AGL For New Fonts
DisplaySize: -72
AntiAlias: 1
FitToEm: 1
WinInfo: 64 16 4
BeginPrivate: 6
BlueValues 22 [-9 0 577 584 823 848]
OtherBlues 11 [-253 -236]
BlueShift 1 4
StdHW 5 [154]
StdVW 5 [167]
StemSnapH 9 [154 173]
EndPrivate

StartChar: exclam
Encoding: 33 33 2
Width: 254
Flags: W
HStem: 0 161<57.7763 179.107> 804 20G<34 195>
VStem: 37 157<16.3623 140.297 681.176 824> 54 121<217 429.45>
LayerCount: 2
Fore
SplineSet
54 217 m 1xd0
 34 824 l 1
 195 824 l 1
 175 217 l 1
 54 217 l 1xd0
37 111 m 1xe0
 47 138 79 161 116 161 c 0
 139 161 161 155 180 146 c 1
 189 126 194 103 194 78 c 0
 194 55 189 33 180 15 c 1
 161 6 139 0 116 0 c 0
 93 0 70 6 52 15 c 1
 43 44 37 77 37 111 c 1xe0
EndSplineSet
EndChar

StartChar: quotedbl
Encoding: 34 34 3
Width: 351
Flags: W
HStem: 556 287<39 152 209 322>
VStem: 16 136<755.652 843> 39 113<556 643.348> 187 136<751.682 843> 209 113<556 647.318>
LayerCount: 2
Fore
SplineSet
16 843 m 1xc0
 152 843 l 1xc0
 152 556 l 1
 39 556 l 1xa0
 16 843 l 1xc0
187 843 m 1x90
 323 843 l 1x90
 322 556 l 1
 209 556 l 1x88
 187 843 l 1x90
EndSplineSet
EndChar

StartChar: numbersign
Encoding: 35 35 4
Width: 664
Flags: W
HStem: 0 21G<63 190.121 298 424.221> 199 129<29 104 253 339 487 582> 497 129<67 162 310 396 545 620> 803 20G<223.838 351 458.838 586>
LayerCount: 2
Fore
SplineSet
364 328 m 1
 396 497 l 1
 285 497 l 1
 253 328 l 1
 364 328 l 1
227 199 m 1
 186 0 l 1
 63 0 l 1
 104 199 l 1
 11 199 l 1
 29 328 l 1
 130 328 l 1
 162 497 l 1
 48 497 l 1
 67 626 l 1
 187 626 l 1
 228 823 l 1
 351 823 l 1
 310 626 l 1
 422 626 l 1
 463 823 l 1
 586 823 l 1
 545 626 l 1
 638 626 l 1
 620 497 l 1
 519 497 l 1
 487 328 l 1
 601 328 l 1
 582 199 l 1
 462 199 l 1
 420 0 l 1
 298 0 l 1
 339 199 l 1
 227 199 l 1
EndSplineSet
EndChar

StartChar: dollar
Encoding: 36 36 5
Width: 662
Flags: W
VStem: 68 165<554.891 640.941> 276 97<-66 -12.625> 289 97<842.556 897> 453 178<186.347 280.274>
LayerCount: 2
Fore
SplineSet
484 622 m 1xb0
 439 670 402 673 343 674 c 0
 275 675 234 634 233 589 c 0
 233 495 631 480 631 245 c 0
 631 237 630 229 628 221 c 0
 617 115 513 14 381 -5 c 1
 373 -66 l 1
 276 -106 l 1xd0
 273 -0 l 1
 182 20 88 78 34 130 c 1
 146 228 l 1
 181 194 258 157 332 157 c 0
 407 157 453 185 453 239 c 0
 453 358 69 374 68 585 c 0
 68 694 155 805 280 827 c 1
 289 897 l 1
 386 937 l 1
 390 825 l 1
 471 811 557 771 600 711 c 1
 484 622 l 1xb0
EndSplineSet
EndChar

StartChar: percent
Encoding: 37 37 6
Width: 700
Flags: W
HStem: -9 117<502.856 607.514> 0 21G<53 193.936> 266 116<503.808 604.873> 445 117<78.3172 182.797> 719 117<78.3172 182.797> 803 20G<492.064 633>
VStem: -62 116<587.069 693.402> 206 116<586.399 694.078> 363 116<133.598 239.992> 631 116<132.922 240.487>
LayerCount: 2
Fore
SplineSet
54 640 m 0x3bc0
 54 597 88 562 130 562 c 0
 173 562 206 597 206 640 c 0
 206 684 173 719 130 719 c 0
 88 719 54 684 54 640 c 0x3bc0
-62 640 m 0
 -62 744 27 836 131 836 c 0
 235 836 322 744 322 640 c 0
 322 536 235 445 131 445 c 0
 27 445 -62 536 -62 640 c 0
479 187 m 0
 479 143 513 108 555 108 c 0xb3c0
 598 108 631 143 631 187 c 0
 631 230 598 265 555 266 c 0
 513 266 479 230 479 187 c 0
363 187 m 0
 363 290 451 382 556 382 c 0
 660 382 747 290 747 187 c 0
 747 83 660 -9 555 -9 c 0
 451 -9 363 83 363 187 c 0
633 823 m 1x77c0
 183 0 l 1
 53 0 l 1
 503 823 l 1
 633 823 l 1x77c0
EndSplineSet
EndChar

StartChar: ampersand
Encoding: 38 38 7
Width: 826
Flags: W
HStem: 0 21G<226.5 353 605 851>
VStem: 124 169<580.73 685.803>
LayerCount: 2
Fore
SplineSet
422 206 m 1
 372 258 323 313 278 365 c 1
 265 356 234 339 216 314 c 0
 201 291 191 264 193 236 c 0
 195 178 255 148 324 155 c 0
 372 161 410 191 422 206 c 1
351 696 m 0
 309 696 293 672 293 629 c 0
 293 598 330 561 334 553 c 1
 375 575 415 601 415 630 c 0
 415 672 399 696 351 696 c 0
476 372 m 1
 562 330 621 338 675 339 c 0
 710 341 737 353 767 356 c 1
 767 336 762 309 746 274 c 1
 731 269 715 262 698 255 c 0
 686 248 672 224 651 194 c 1
 674 171 696 149 718 128 c 2
 851 0 l 1
 625 0 l 1
 603 22 l 2
 583 41 563 61 543 82 c 1
 481 31 409 -8 297 -9 c 0
 156 -9 23 69 15 225 c 0
 12 274 29 319 57 356 c 0
 105 414 179 452 188 481 c 1
 177 502 123 581 124 630 c 0
 124 747 209 813 301 827 c 0
 451 848 557 760 568 648 c 0
 578 549 485 502 429 458 c 1
 436 430 451 401 476 372 c 1
EndSplineSet
EndChar

StartChar: quotesingle
Encoding: 39 39 8
Width: 252
Flags: W
HStem: 556 287<74 187>
VStem: 52 136<751.682 843> 74 113<556 647.318>
LayerCount: 2
Fore
SplineSet
52 843 m 1xc0
 188 843 l 1xc0
 187 556 l 1
 74 556 l 1xa0
 52 843 l 1xc0
EndSplineSet
EndChar

StartChar: parenleft
Encoding: 40 40 9
Width: 350
Flags: W
HStem: 826 20G<215.5 321.286>
VStem: 23 154<174.627 517.988>
LayerCount: 2
Fore
SplineSet
362 -123 m 1
 210 -151 l 1
 208 -149 196 -135 180 -112 c 0
 111 -30 23 128 23 342 c 0
 24 546 101 692 175 789 c 0
 197 824 214 844 217 846 c 1
 363 818 l 1
 348 803 313 764 277 699 c 1
 219 610 177 503 177 341 c 0
 177 201 219 89 266 14 c 1
 304 -62 344 -108 362 -123 c 1
EndSplineSet
EndChar

StartChar: parenright
Encoding: 41 41 10
Width: 350
Flags: W
HStem: 826 20G<21 127>
VStem: 166 153<170.899 517.829>
LayerCount: 2
Fore
SplineSet
134 -151 m 1
 -13 -123 l 1
 2 -108 32 -74 63 -20 c 0
 114 58 166 181 166 342 c 0
 166 497 123 610 65 699 c 1
 29 764 -6 803 -21 818 c 1
 126 846 l 1
 128 844 140 831 154 810 c 0
 229 719 319 556 319 342 c 0
 319 136 229 -28 164 -111 c 0
 149 -134 137 -148 134 -151 c 1
EndSplineSet
EndChar

StartChar: asterisk
Encoding: 42 42 11
Width: 454
Flags: W
HStem: 608 91<62.8462 82.4783 392.217 412.154>
LayerCount: 2
Fore
SplineSet
411 699 m 1
 426 608 l 1
 315 585 l 1
 383 473 l 1
 294 448 l 1
 237 530 l 1
 180 448 l 1
 91 473 l 1
 159 585 l 1
 49 608 l 1
 64 699 l 1
 174 679 l 1
 145 800 l 1
 212 800 l 1
 229 770 l 1
 262 800 l 1
 330 800 l 1
 300 679 l 1
 411 699 l 1
EndSplineSet
EndChar

StartChar: plus
Encoding: 43 43 12
Width: 554
Flags: W
HStem: 313 147<24 200 347 522>
VStem: 200 147<137 313 460 636>
LayerCount: 2
Fore
SplineSet
347 137 m 1
 200 137 l 1
 200 313 l 1
 24 313 l 1
 24 460 l 1
 200 460 l 1
 200 636 l 1
 347 636 l 1
 347 460 l 1
 522 460 l 1
 522 313 l 1
 347 313 l 1
 347 137 l 1
EndSplineSet
EndChar

StartChar: comma
Encoding: 44 44 13
Width: 224
Flags: W
HStem: -123 278
VStem: -12 207
LayerCount: 2
Fore
SplineSet
-12 -114 m 1
 118 -23 21 118 85 155 c 1
 133 155 175 134 195 106 c 1
 194 99 192 92 190 84 c 0
 180 12 137 -55 92 -89 c 0
 74 -102 56 -113 38 -123 c 1
 -12 -114 l 1
EndSplineSet
EndChar

StartChar: hyphen
Encoding: 45 45 14
Width: 418
Flags: W
HStem: 267 147<27 383>
LayerCount: 2
Fore
SplineSet
27 414 m 1
 383 414 l 1
 383 267 l 1
 27 267 l 1
 27 414 l 1
EndSplineSet
EndChar

StartChar: period
Encoding: 46 46 15
Width: 248
Flags: W
HStem: 0 161<53.7763 175.107>
VStem: 33 157<16.3623 140.297>
LayerCount: 2
Fore
SplineSet
33 111 m 1
 43 138 75 161 112 161 c 0
 135 161 157 155 176 146 c 1
 185 126 190 103 190 78 c 0
 190 55 185 33 176 15 c 1
 157 6 135 0 112 0 c 0
 88 0 66 6 48 15 c 1
 39 44 33 77 33 111 c 1
EndSplineSet
EndChar

StartChar: slash
Encoding: 47 47 16
Width: 509
Flags: W
HStem: 823 20G<338.325 496>
LayerCount: 2
Fore
SplineSet
496 843 m 1
 146 -69 l 1
 -4 -69 l 1
 346 843 l 1
 496 843 l 1
EndSplineSet
EndChar

StartChar: zero
Encoding: 48 48 17
Width: 679
Flags: W
HStem: -9 155<274.316 397.009> 695 154<274.352 397.325>
VStem: 23 169<259.737 576.334> 479 169<259.64 576.431>
LayerCount: 2
Fore
SplineSet
192 420 m 0
 192 241 252 145 336 146 c 0
 420 146 479 240 479 420 c 0
 479 593 420 694 336 695 c 0
 251 695 192 592 192 420 c 0
23 420 m 0
 23 677 168 849 336 849 c 0
 504 849 648 677 648 420 c 0
 648 151 505 -9 336 -9 c 0
 168 -9 23 151 23 420 c 0
EndSplineSet
EndChar

StartChar: one
Encoding: 49 49 18
Width: 376
Flags: W
HStem: 0 21G<169 337> 820 20G<213.425 337>
VStem: 169 168<0 598>
LayerCount: 2
Fore
SplineSet
24 548 m 1
 50 687 l 1
 238 840 l 1
 337 840 l 1
 337 0 l 1
 169 0 l 1
 169 598 l 1
 24 548 l 1
EndSplineSet
EndChar

StartChar: two
Encoding: 50 50 19
Width: 658
Flags: W
HStem: 0 154<274 629> 698 151<250.055 391.808>
VStem: 444 175<509.072 644.798>
LayerCount: 2
Fore
SplineSet
317 698 m 0
 227 698 173 589 173 561 c 1
 23 605 l 1
 23 661 128 849 317 849 c 0
 524 849 615 711 619 595 c 0
 634 356 274 194 274 154 c 1
 629 154 l 1
 629 0 l 1
 21 0 l 1
 21 57 l 1
 21 57 22 58 25 60 c 0
 57 201 444 424 444 576 c 0
 444 622 419 698 317 698 c 0
EndSplineSet
EndChar

StartChar: three
Encoding: 51 51 20
Width: 638
Flags: W
HStem: -9 153<229.866 392.984> 703 146<212.668 395.728>
LayerCount: 2
Fore
SplineSet
66 745 m 1
 88 773 153 849 317 849 c 0
 419 849 510 823 578 782 c 1
 580 744 576 702 564 657 c 0
 550 595 520 543 480 500 c 1
 527 478 610 383 610 272 c 0
 610 117 477 -9 311 -9 c 0
 129 -9 37 117 19 190 c 0
 14 207 12 221 10 233 c 1
 168 282 l 5
 169 274 173 257 178 238 c 0
 190 192 226 144 310 144 c 0
 404 144 461 207 456 283 c 0
 452 350 397 400 289 398 c 1
 235 469 l 1
 380 509 492 703 334 703 c 2
 318 703 l 2
 226 703 178 663 151 644 c 1
 66 745 l 1
EndSplineSet
EndChar

StartChar: four
Encoding: 52 52 21
Width: 674
Flags: W
HStem: 0 21G<395 556> 177 154<234 395 556 644> 822 20G<304.767 487>
VStem: 395 161<0 177 331 562>
LayerCount: 2
Fore
SplineSet
395 562 m 1
 556 562 l 1
 556 331 l 1
 644 331 l 1
 644 177 l 1
 556 177 l 1
 556 0 l 1
 395 0 l 1
 395 177 l 1
 -3 177 l 1
 8 242 l 1
 315 842 l 1
 487 842 l 1
 234 331 l 1
 395 331 l 1
 395 562 l 1
EndSplineSet
EndChar

StartChar: five
Encoding: 53 53 22
Width: 639
Flags: W
HStem: -9 150<237.139 382.854> 438 145<261.46 377.82> 686 154<282 557>
VStem: 446 161<266.937 374.915>
LayerCount: 2
Fore
SplineSet
310 141 m 0
 395 142 451 210 446 301 c 0
 443 383 393 427 301 438 c 1
 244 440 217 422 195 407 c 1
 134 407 87 399 52 392 c 1
 144 840 l 1
 557 840 l 1
 557 686 l 1
 282 686 l 1
 260 576 l 1
 280 584 304 584 324 583 c 0
 473 578 595 490 607 324 c 0
 608 305 608 286 607 266 c 0
 596 111 471 -9 310 -9 c 0
 149 -9 40 106 19 229 c 1
 164 270 l 1
 175 206 227 141 310 141 c 0
EndSplineSet
EndChar

StartChar: six
Encoding: 54 54 23
Width: 654
Flags: W
HStem: -9 149<250.881 396.678> 420 150<310.169 394.606> 820 20G<302.5 504>
VStem: 21 172<198.789 359.138> 457 168<199.109 361.091>
LayerCount: 2
Fore
SplineSet
324 420 m 0
 249 420 193 363 193 280 c 0
 193 196 246 140 324 140 c 0
 402 140 457 196 457 279 c 0
 457 364 401 420 324 420 c 0
309 840 m 1
 504 840 l 1
 421 726 l 2
 384 674 345 619 308 564 c 1
 325 568 347 571 372 570 c 0
 492 560 624 449 625 279 c 0
 625 273 624 266 623 260 c 0
 613 90 471 -8 330 -9 c 0
 171 -9 39 106 25 250 c 1
 21 250 l 1
 21 280 l 2
 21 301 25 324 32 347 c 0
 66 475 179 651 266 780 c 0
 281 801 296 821 309 840 c 1
EndSplineSet
EndChar

StartChar: seven
Encoding: 55 55 24
Width: 644
Flags: W
HStem: 0 21G<45 237> 686 154<25 375>
LayerCount: 2
Fore
SplineSet
641 840 m 1
 614 763 l 1
 603 748 593 734 582 719 c 0
 435 496 322 295 255 69 c 0
 247 46 240 23 234 0 c 1
 45 0 l 1
 61 41 75 82 91 122 c 0
 158 340 250 534 375 686 c 1
 25 686 l 1
 25 840 l 1
 641 840 l 1
EndSplineSet
EndChar

StartChar: eight
Encoding: 56 56 25
Width: 642
Flags: W
HStem: -9 153<242.453 388.237> 380 150<248.963 387.774> 707 142<249.007 386.14>
VStem: 21 176<191.761 334.061> 54 163<561.067 674.449> 416 162<558.378 676.734> 437 176<194.628 333.042>
LayerCount: 2
Fore
SplineSet
197 262 m 0xf2
 197 191 244 144 317 144 c 0
 388 144 437 191 437 262 c 0
 437 328 395 373 333 380 c 1
 301 380 l 1
 238 373 197 328 197 262 c 0xf2
416 618 m 0xec
 416 671 381 707 318 707 c 0
 256 707 217 671 217 618 c 0
 217 569 251 536 303 530 c 1
 334 530 l 1
 386 536 417 568 416 618 c 0xec
54 633 m 0
 54 758 187 848 317 849 c 0
 451 849 578 753 578 633 c 0xec
 578 557 541 500 486 461 c 1
 555 420 606 352 613 265 c 0
 613 254 614 243 613 232 c 0
 606 96 464 -9 318 -9 c 0
 169 -9 29 96 21 232 c 1xf2
 21 343 69 414 147 462 c 1
 92 500 54 557 54 633 c 0
EndSplineSet
EndChar

StartChar: nine
Encoding: 57 57 26
Width: 653
Flags: W
HStem: 0 21G<143 343> 270 151<246.08 335.996> 700 149<248.737 395.579>
VStem: 22 167<479.369 641.043> 453 172<480.953 641.455>
LayerCount: 2
Fore
SplineSet
322 421 m 0
 398 421 453 477 453 561 c 0
 453 644 400 700 322 700 c 0
 244 700 190 644 189 561 c 0
 189 477 245 420 322 421 c 0
22 561 m 0
 22 743 171 849 317 849 c 0
 476 849 607 734 621 591 c 1
 625 591 l 1
 625 560 l 2
 625 539 621 517 614 493 c 0
 580 366 467 190 379 61 c 0
 364 40 350 19 336 0 c 1
 143 0 l 1
 225 114 l 2
 262 166 301 221 339 276 c 1
 334 276 327 274 317 272 c 0
 305 270 291 269 274 270 c 0
 154 281 22 392 22 561 c 0
EndSplineSet
EndChar

StartChar: colon
Encoding: 58 58 27
Width: 244
Flags: W
HStem: 0 161<56.7167 178.106> 299 161<56.7167 178.106>
VStem: 36 157<16.3623 140.297 315.362 439.297> 50 143<15.8467 109.407 314.892 408.407>
LayerCount: 2
Fore
SplineSet
36 111 m 1xe0
 46 138 78 161 114 161 c 0
 137 161 160 155 179 146 c 1
 188 126 193 103 193 78 c 0xe0
 193 55 188 33 179 15 c 1
 160 6 137 0 114 0 c 0
 91 0 69 6 50 15 c 1xd0
 42 44 36 77 36 111 c 1xe0
36 410 m 1
 46 437 78 460 114 460 c 0
 137 460 160 455 179 445 c 1
 188 425 193 402 193 377 c 0xe0
 193 354 188 333 179 314 c 1
 160 305 137 299 114 299 c 0
 91 299 69 305 50 314 c 1xd0
 42 343 36 376 36 410 c 1
EndSplineSet
EndChar

StartChar: semicolon
Encoding: 59 59 28
Width: 233
Flags: W
HStem: 299 161<53.7167 175.107>
VStem: 33 157<315.362 439.297>
LayerCount: 2
Fore
SplineSet
33 410 m 1
 43 437 75 460 111 460 c 0
 135 460 157 455 176 445 c 1
 184 425 190 402 190 377 c 0
 190 354 184 333 176 314 c 1
 157 305 135 299 111 299 c 0
 88 299 66 305 47 314 c 1
 38 343 33 376 33 410 c 1
-17 -114 m 1
 113 -23 17 118 81 155 c 1
 128 155 170 134 190 106 c 1
 189 99 188 92 185 84 c 0
 175 12 132 -55 87 -89 c 0
 69 -102 51 -113 33 -123 c 1
 -17 -114 l 1
EndSplineSet
EndChar

StartChar: less
Encoding: 60 60 29
Width: 611
Flags: W
LayerCount: 2
Fore
SplineSet
23 446 m 1
 576 670 l 1
 576 524 l 1
 241 392 l 1
 576 260 l 1
 576 114 l 1
 23 338 l 1
 23 446 l 1
EndSplineSet
EndChar

StartChar: equal
Encoding: 61 61 30
Width: 567
Flags: W
HStem: 217 133<58 531> 434 133<58 531>
LayerCount: 2
Fore
SplineSet
58 350 m 1
 531 350 l 1
 531 217 l 1
 58 217 l 1
 58 350 l 1
58 567 m 1
 531 567 l 1
 531 434 l 1
 58 434 l 1
 58 567 l 1
EndSplineSet
EndChar

StartChar: greater
Encoding: 62 62 31
Width: 611
Flags: W
LayerCount: 2
Fore
SplineSet
27 260 m 1
 362 392 l 1
 27 524 l 1
 27 670 l 1
 579 446 l 1
 579 338 l 1
 27 114 l 1
 27 260 l 1
EndSplineSet
EndChar

StartChar: question
Encoding: 63 63 32
Width: 568
Flags: W
HStem: 0 162<216.339 337.107> 660 150<210.86 335.077>
VStem: 196 157<16.3623 141.041>
LayerCount: 2
Fore
SplineSet
370 292 m 1
 345 276 343 270 338 216 c 1
 196 217 l 1
 190 346 201 397 239 435 c 0
 296 495 362 512 362 570 c 0
 362 629 327 660 273 660 c 0
 204 660 169 602 163 541 c 1
 19 582 l 1
 20 678 97 810 274 810 c 0
 403 809 530 717 538 585 c 0
 539 575 539 566 538 556 c 0
 527 433 406 404 370 292 c 1
196 111 m 1
 205 139 238 162 274 162 c 0
 297 162 319 156 338 147 c 1
 347 126 353 103 353 78 c 0
 353 55 347 33 338 15 c 1
 319 6 297 0 274 0 c 0
 251 0 229 6 210 15 c 1
 201 44 196 77 196 111 c 1
EndSplineSet
EndChar

StartChar: at
Encoding: 64 64 33
Width: 1160
Flags: W
HStem: 0 21G<33 191 709 870> 438 146<503.854 646.184> 705 159<500.683 760.939>
VStem: 33 158<0 294.939> 270 168<201.797 370.696> 711 159<201.016 371.504>
LayerCount: 2
Fore
SplineSet
438 287 m 0
 438 196 493 136 575 136 c 0
 655 136 710 195 711 284 c 1
 711 287 l 2
 711 378 653 437 575 438 c 0
 496 438 438 378 438 287 c 0
191 0 m 1
 33 0 l 1
 33 580 194 862 656 864 c 0
 1254 866 1233 0 870 0 c 2
 709 0 l 1
 709 56 l 1
 664 13 605 -14 524 -8 c 0
 378 4 270 135 270 287 c 0
 270 439 379 570 524 582 c 0
 535 583 547 584 561 584 c 0
 620 585 706 576 767 551 c 1
 784 554 797 556 805 555 c 0
 828 551 850 546 870 540 c 1
 870 185 l 1
 1031 191 1019 705 656 705 c 0
 282 705 191 452 191 0 c 1
EndSplineSet
EndChar

StartChar: A
Encoding: 65 65 34
Width: 840
Flags: W
HStem: 0 21G<2 191.904 641.976 831> 167 154<313 520> 803 20G<338.616 494.384>
LayerCount: 2
Fore
SplineSet
486 823 m 1
 831 0 l 1
 650 0 l 1
 583 167 l 1
 250 167 l 1
 184 0 l 1
 2 0 l 1
 347 823 l 1
 486 823 l 1
520 321 m 1
 416 573 l 1
 313 321 l 1
 520 321 l 1
EndSplineSet
EndChar

StartChar: B
Encoding: 66 66 35
Width: 693
Flags: W
HStem: 0 141<230 444.108> 343 132<230 423.506> 678 143<230 421.523>
VStem: 57 173<141 343 475 678> 464 175<512.201 639.651> 486 175<177.529 303.367>
LayerCount: 2
Fore
SplineSet
230 475 m 1xf8
 270 475 l 2
 303 475 335 476 365 478 c 0
 422 483 464 513 464 575 c 0
 464 638 422 669 365 675 c 0
 335 677 303 678 270 678 c 2
 230 678 l 1
 230 475 l 1xf8
230 343 m 1
 230 141 l 1
 272 141 l 2
 314 141 359 142 400 147 c 0
 453 154 487 184 486 242 c 0xf4
 486 294 455 324 406 332 c 0
 355 343 299 343 258 343 c 2
 230 343 l 1
567 420 m 1
 625 377 662 312 661 235 c 0xf4
 661 106 556 16 426 2 c 0
 408 1 389 0 370 0 c 2
 57 0 l 1
 57 820 l 1
 375 821 l 2
 520 821 639 725 639 582 c 0xf8
 639 517 611 461 567 420 c 1
EndSplineSet
EndChar

StartChar: C
Encoding: 67 67 36
Width: 735
Flags: W
VStem: 23 177<308.662 514.088>
LayerCount: 2
Fore
SplineSet
720 135 m 5
 720 135 628 10 480 -2 c 0
 439 -7 400 -5 365 1 c 0
 179 31 23 208 23 411 c 0
 23 614 178 792 365 822 c 0
 399 828 439 830 480 825 c 0
 628 812 720 701 720 701 c 5
 636 595 l 5
 636 595 578 645 505 654 c 1
 315 697 200 553 200 412 c 0
 200 270 315 126 505 169 c 1
 578 178 636 241 636 241 c 5
 720 135 l 5
EndSplineSet
EndChar

StartChar: D
Encoding: 68 68 37
Width: 746
Flags: W
HStem: 0 156<225 415.192> 667 156<225 415.064>
VStem: 57 168<156 667> 539 175<287.661 535.092>
LayerCount: 2
Fore
SplineSet
539 411 m 0
 539 543 485 636 379 656 c 0
 332 663 281 667 225 667 c 1
 225 156 l 1
 281 156 332 160 379 166 c 0
 485 186 539 279 539 411 c 0
57 822 m 1
 301 823 l 2
 331 823 361 821 390 817 c 0
 570 794 714 620 714 412 c 0
 714 203 571 29 390 6 c 0
 361 2 331 0 300 0 c 2
 57 0 l 1
 57 822 l 1
EndSplineSet
EndChar

StartChar: E
Encoding: 69 69 38
Width: 617
Flags: W
HStem: 0 154<225 583> 335 154<225 524> 669 154<225 583>
VStem: 57 168<154 335 489 669>
LayerCount: 2
Fore
SplineSet
583 823 m 1
 583 669 l 1
 225 669 l 1
 225 489 l 1
 524 489 l 1
 524 335 l 1
 225 335 l 1
 225 154 l 1
 583 154 l 1
 583 0 l 1
 57 0 l 1
 57 823 l 1
 583 823 l 1
EndSplineSet
EndChar

StartChar: F
Encoding: 70 70 39
Width: 591
Flags: W
HStem: 0 21G<57 225> 335 154<225 502> 669 154<225 561>
VStem: 57 168<0 335 489 669>
LayerCount: 2
Fore
SplineSet
561 823 m 1
 561 669 l 1
 225 669 l 1
 225 489 l 1
 502 489 l 1
 502 335 l 1
 225 335 l 1
 225 0 l 1
 57 0 l 1
 57 823 l 1
 561 823 l 1
EndSplineSet
EndChar

StartChar: G
Encoding: 71 71 40
Width: 825
Flags: W
HStem: -9 159<336.999 525.904> 319 138<430 637> 584 21G<614 665.844> 690 158<347.719 544.406>
VStem: 19 176<303.748 526.314> 717 56<29 99.8024>
LayerCount: 2
Fore
SplineSet
813 457 m 1
 816 319 811 136 773 10 c 5
 717 29 l 5
 710 102 l 1
 642 29 542 -9 416 -9 c 0
 207 -8 19 181 19 406 c 0
 18 680 207 846 428 848 c 0
 592 851 726 777 768 661 c 1
 630 584 l 1
 598 657 523 692 438 690 c 0
 314 688 195 584 195 410 c 0
 195 263 300 150 422 150 c 0
 543 151 637 227 637 319 c 1
 430 318 l 1
 410 455 l 1
 813 457 l 1
EndSplineSet
EndChar

StartChar: H
Encoding: 72 72 41
Width: 701
Flags: W
HStem: 0 21G<57 225 494 662> 327 168<225 494> 803 20G<57 225 494 662>
VStem: 57 168<0 327 495 823> 494 168<0 327 495 823>
LayerCount: 2
Fore
SplineSet
662 823 m 1
 662 0 l 1
 494 0 l 1
 494 327 l 1
 225 327 l 1
 225 0 l 1
 57 0 l 1
 57 823 l 1
 225 823 l 1
 225 495 l 1
 494 495 l 1
 494 823 l 1
 662 823 l 1
EndSplineSet
EndChar

StartChar: I
Encoding: 73 73 42
Width: 280
Flags: W
HStem: 0 21G<57 225> 803 20G<57 225>
VStem: 57 168<0 823>
LayerCount: 2
Fore
SplineSet
225 823 m 1
 225 0 l 1
 57 0 l 1
 57 823 l 1
 225 823 l 1
EndSplineSet
EndChar

StartChar: J
Encoding: 74 74 43
Width: 561
Flags: W
HStem: -6 163<187.544 322.855> 803 20G<356 523>
VStem: 356 167<195.087 823>
LayerCount: 2
Fore
SplineSet
164 232 m 1
 164 195 188 157 250 157 c 0
 329 157 356 202 356 263 c 2
 356 823 l 1
 523 823 l 1
 523 235 l 2
 523 88 408 -6 240 -6 c 4
 166 -6 28 43 27 232 c 1
 164 232 l 1
EndSplineSet
EndChar

StartChar: K
Encoding: 75 75 44
Width: 776
Flags: W
HStem: 0 21G<57 225 506 798> 803 20G<57 225 496 768>
VStem: 57 168<0 385 445 823>
LayerCount: 2
Fore
SplineSet
798 0 m 1
 562 0 l 1
 450 128 338 257 225 385 c 1
 225 0 l 1
 57 0 l 1
 57 823 l 1
 225 823 l 1
 225 445 l 1
 333 571 442 697 550 823 c 1
 768 823 l 1
 412 415 l 1
 798 0 l 1
EndSplineSet
EndChar

StartChar: L
Encoding: 76 76 45
Width: 580
Flags: W
HStem: 0 154<225 549> 803 20G<57 225>
VStem: 57 168<154 823>
LayerCount: 2
Fore
SplineSet
225 823 m 1
 225 154 l 1
 549 154 l 1
 549 0 l 1
 57 0 l 1
 57 823 l 1
 225 823 l 1
EndSplineSet
EndChar

StartChar: M
Encoding: 77 77 46
Width: 927
Flags: W
HStem: 0 21G<57 224.084 720.958 888> 803 20G<57 267.247 676.83 888>
VStem: 57 167<0 478> 721 167<0 478>
LayerCount: 2
Fore
SplineSet
520 3 m 1
 425 3 l 1
 226 478 l 1
 224 0 l 1
 57 0 l 1
 57 823 l 1
 259 823 l 1
 473 304 l 1
 685 823 l 1
 888 823 l 1
 888 0 l 1
 721 0 l 1
 720 478 l 1
 520 3 l 1
EndSplineSet
EndChar

StartChar: N
Encoding: 78 78 47
Width: 765
Flags: W
HStem: 0 21G<57 225 686.656 726> 803 20G<57 96.0164 558.915 726>
VStem: 57 168<0 469> 557 169<353 823>
LayerCount: 2
Fore
SplineSet
57 0 m 1
 57 823 l 1
 176 762 l 1
 557 353 l 1
 559 823 l 1
 726 823 l 1
 726 0 l 1
 606 61 l 1
 225 469 l 1
 225 0 l 1
 57 0 l 1
EndSplineSet
EndChar

StartChar: O
Encoding: 79 79 48
Width: 864
Flags: W
HStem: -9 174<342.208 522.05> 658 174<341.063 524.492>
VStem: 31 178<306.019 517.518> 655 177<309.292 514.308>
LayerCount: 2
Fore
SplineSet
209 412 m 0
 209 271 305 164 432 165 c 0
 560 165 655 271 655 412 c 0
 655 552 560 658 433 658 c 0
 305 658 209 552 209 412 c 0
31 412 m 0
 31 637 214 831 433 832 c 0
 652 832 833 636 832 412 c 0
 832 187 652 -9 432 -9 c 0
 213 -9 31 187 31 412 c 0
EndSplineSet
EndChar

StartChar: P
Encoding: 80 80 49
Width: 684
Flags: W
HStem: 0 21G<57 225> 320 146<225 386.236> 677 146<225 431.661>
VStem: 57 168<0 320 466 677> 482 173<511.725 637.354>
LayerCount: 2
Fore
SplineSet
225 466 m 1
 278 466 334 468 384 474 c 0
 445 482 482 516 482 571 c 0
 482 630 458 659 388 668 c 0
 338 675 283 677 225 677 c 1
 225 466 l 1
57 822 m 1
 381 823 l 1
 571 820 655 696 655 574 c 0
 655 422 520 336 389 325 c 0
 330 321 273 321 225 320 c 1
 225 0 l 1
 57 0 l 1
 57 822 l 1
EndSplineSet
EndChar

StartChar: Q
Encoding: 81 81 50
Width: 896
Flags: W
HStem: -9 174<342.208 517.271> 658 174<341.063 524.492>
VStem: 31 178<306.019 517.518> 655 177<304.307 514.308>
LayerCount: 2
Fore
SplineSet
885 29 m 1
 713 -12 l 1
 644 57 l 1
 583 15 510 -9 432 -9 c 0
 213 -9 31 187 31 412 c 0
 31 637 214 831 433 832 c 0
 652 832 833 636 832 412 c 0
 832 321 802 235 753 165 c 1
 885 29 l 1
209 412 m 0
 209 271 305 164 432 165 c 0
 464 165 493 171 519 183 c 1
 437 265 l 1
 552 371 l 1
 629 292 l 1
 646 327 655 368 655 412 c 0
 655 552 560 658 433 658 c 0
 305 658 209 552 209 412 c 0
EndSplineSet
EndChar

StartChar: R
Encoding: 82 82 51
Width: 722
Flags: W
HStem: -1 21G<57 225 505.5 713> 321 146<225 311.656> 677 146<225 431.892>
VStem: 57 168<0 321 467 677> 482 173<518.783 637.542>
LayerCount: 2
Fore
SplineSet
57 822 m 1
 381 823 l 1
 572 820 655 696 655 574 c 0
 655 462 571 386 477 351 c 1
 547 283 675 65 713 -1 c 1
 525 -1 l 1
 486 58 408 226 290 322 c 1
 267 322 244 321 225 321 c 1
 225 0 l 1
 57 0 l 1
 57 822 l 1
225 467 m 1
 267 467 310 468 351 472 c 0
 423 478 482 514 482 571 c 0
 482 631 458 659 389 668 c 0
 339 675 283 677 225 677 c 1
 225 467 l 1
EndSplineSet
EndChar

StartChar: S
Encoding: 83 83 52
Width: 662
Flags: W
HStem: -8 165<227.058 419.948> 674 157<272.135 444.327>
VStem: 68 165<554.891 638.601> 453 178<187.139 280.274>
LayerCount: 2
Fore
SplineSet
484 622 m 5
 439 670 402 673 343 674 c 0
 275 675 234 634 233 589 c 0
 233 495 631 480 631 245 c 0
 631 237 630 229 628 221 c 0
 616 103 489 -8 337 -8 c 0
 228 -8 101 65 34 130 c 5
 146 228 l 5
 181 194 258 157 332 157 c 0
 407 157 453 185 453 239 c 0
 453 358 69 374 68 585 c 0
 68 707 177 831 326 831 c 0
 420 831 545 787 600 711 c 5
 484 622 l 5
EndSplineSet
EndChar

StartChar: T
Encoding: 84 84 53
Width: 646
Flags: W
HStem: 0 21G<231 399> 669 154<12 231 399 617>
VStem: 231 168<0 669>
LayerCount: 2
Fore
SplineSet
12 669 m 1
 12 823 l 1
 617 823 l 1
 617 669 l 1
 399 669 l 1
 399 0 l 1
 231 0 l 1
 231 669 l 1
 12 669 l 1
EndSplineSet
EndChar

StartChar: U
Encoding: 85 85 54
Width: 734
Flags: W
HStem: -9 166<286.786 456.939> 802 20G<46.9569 215 529.958 698>
VStem: 46 168<234.11 822> 529 168<234.11 822>
LayerCount: 2
Fore
SplineSet
698 822 m 1
 697 358 l 2
 697 335 696 313 694 291 c 0
 680 107 558 -9 372 -9 c 0
 186 -8 63 107 49 291 c 0
 47 313 46 335 46 358 c 2
 47 822 l 1
 215 822 l 1
 214 351 l 2
 214 216 271 157 372 157 c 0
 472 157 530 216 529 351 c 1
 530 822 l 1
 698 822 l 1
EndSplineSet
EndChar

StartChar: V
Encoding: 86 86 55
Width: 822
Flags: W
HStem: 0 21G<336.665 478.311> 803 20G<2 196.935 618.101 812>
LayerCount: 2
Fore
SplineSet
345 0 m 1
 2 823 l 1
 189 823 l 1
 408 271 l 1
 626 823 l 1
 812 823 l 1
 470 0 l 1
 345 0 l 1
EndSplineSet
EndChar

StartChar: W
Encoding: 87 87 56
Width: 1103
Flags: W
HStem: 0 21G<221.702 397.331 698.669 874.298> 803 20G<9 195.861 479.915 616.974 901.102 1087>
LayerCount: 2
Fore
SplineSet
322 284 m 5
 486 823 l 1
 611 823 l 1
 772 284 l 1
 774 284 l 1
 906 823 l 1
 1087 823 l 1
 869 0 l 1
 705 0 l 1
 548 496 l 1
 391 0 l 1
 227 0 l 1
 9 823 l 1
 191 823 l 1
 322 284 l 5
EndSplineSet
EndChar

StartChar: X
Encoding: 88 88 57
Width: 813
Flags: W
HStem: 0 21G<-10 211.5 588.5 815> 803 20G<-2 220.175 578.903 807>
LayerCount: 2
Fore
SplineSet
807 823 m 1
 503 421 l 1
 815 0 l 1
 603 0 l 1
 400 280 l 1
 197 0 l 1
 -10 0 l 1
 297 421 l 1
 -2 823 l 1
 205 823 l 1
 400 566 l 1
 594 823 l 1
 807 823 l 1
EndSplineSet
EndChar

StartChar: Y
Encoding: 89 89 58
Width: 792
Flags: W
HStem: 0 21G<301 484> 803 20G<-16 201.163 584.029 799>
VStem: 301 183<0 347>
LayerCount: 2
Fore
SplineSet
597 823 m 1
 799 823 l 1
 484 347 l 1
 484 0 l 1
 301 0 l 1
 301 347 l 1
 -16 823 l 1
 188 823 l 1
 394 510 l 1
 597 823 l 1
EndSplineSet
EndChar

StartChar: Z
Encoding: 90 90 59
Width: 729
Flags: W
HStem: 0 154<292 661> 669 154<88 421>
LayerCount: 2
Fore
SplineSet
723 823 m 1
 292 154 l 1
 661 154 l 1
 689 0 l 1
 -9 0 l 1
 421 669 l 1
 88 669 l 1
 59 823 l 1
 723 823 l 1
EndSplineSet
EndChar

StartChar: bracketleft
Encoding: 91 91 60
Width: 372
Flags: W
HStem: -152 121<179 345> 717 121<179 345>
VStem: 37 308<-152 -31 717 838> 37 142<-31 717>
LayerCount: 2
Fore
SplineSet
37 838 m 1xe0
 345 838 l 1
 345 717 l 1xe0
 179 717 l 1
 179 -31 l 1xd0
 345 -31 l 1
 345 -152 l 1
 37 -152 l 1
 37 838 l 1xe0
EndSplineSet
EndChar

StartChar: backslash
Encoding: 92 92 61
Width: 509
Flags: W
HStem: 823 20G<-3 154.675>
LayerCount: 2
Fore
SplineSet
-3 843 m 1
 147 843 l 1
 497 -69 l 1
 346 -69 l 1
 -3 843 l 1
EndSplineSet
EndChar

StartChar: bracketright
Encoding: 93 93 62
Width: 372
Flags: W
HStem: -152 121<26 192> 717 121<26 192>
VStem: 26 308<-152 -31 717 838> 192 142<-31 717>
LayerCount: 2
Fore
SplineSet
26 -31 m 1xe0
 192 -31 l 1
 192 717 l 1xd0
 26 717 l 1
 26 838 l 1
 334 838 l 1
 334 -152 l 1
 26 -152 l 1
 26 -31 l 1xe0
EndSplineSet
EndChar

StartChar: asciicircum
Encoding: 94 94 63
Width: 532
Flags: W
HStem: 508 308
LayerCount: 2
Fore
SplineSet
368 508 m 1
 269 662 l 1
 170 508 l 1
 22 508 l 1
 227 816 l 1
 311 816 l 1
 517 508 l 1
 368 508 l 1
EndSplineSet
EndChar

StartChar: underscore
Encoding: 95 95 64
Width: 561
Flags: W
HStem: -110 108<6 581>
LayerCount: 2
Fore
SplineSet
6 -2 m 1
 581 -2 l 1
 581 -110 l 1
 6 -110 l 1
 6 -2 l 1
EndSplineSet
EndChar

StartChar: grave
Encoding: 96 96 65
Width: 323
Flags: W
HStem: 555 277
VStem: -1 316
LayerCount: 2
Fore
SplineSet
120 832 m 1
 315 599 l 1
 213 555 l 1
 -1 765 l 1
 120 832 l 1
EndSplineSet
EndChar

StartChar: a
Encoding: 97 97 66
Width: 662
Flags: W
HStem: 0 21G<464 625> 438 146<258.854 401.184>
VStem: 25 168<201.797 370.696> 464 161<0 56 198.061 374.504>
LayerCount: 2
Fore
SplineSet
193 287 m 0
 193 196 248 136 330 136 c 0
 410 136 465 195 466 284 c 1
 466 287 l 2
 466 378 408 437 330 438 c 0
 251 438 193 378 193 287 c 0
625 540 m 1
 625 0 l 1
 464 0 l 1
 464 56 l 1
 419 13 360 -14 279 -8 c 0
 133 4 25 135 25 287 c 0
 25 439 134 570 279 582 c 0
 290 583 302 584 316 584 c 0
 375 585 461 576 522 551 c 1
 539 554 552 556 560 555 c 0
 583 551 605 546 625 540 c 1
EndSplineSet
EndChar

StartChar: b
Encoding: 98 98 67
Width: 680
Flags: W
HStem: -9 145<267.614 415.836> 0 21G<46 149> 438 146<266.559 414.327>
VStem: 46 160<197.239 376.761 559 861> 46 103<0 51.4684> 478 166<201.125 371.504>
LayerCount: 2
Fore
SplineSet
478 287 m 0xb4
 478 378 420 437 341 438 c 0
 270 438 217 390 206 315 c 1
 206 259 l 1
 217 184 270 136 341 136 c 0
 423 136 478 196 478 287 c 0xb4
46 861 m 1
 207 861 l 1
 206 559 l 1
 256 575 310 584 355 584 c 0
 367 584 379 584 390 582 c 0
 526 572 632 453 643 315 c 0
 645 299 645 283 644 267 c 0
 636 122 530 1 390 -8 c 0
 371 -9 353 -9 336 -9 c 0xb4
 257 -4 198 19 153 52 c 1
 149 41 149 8 149 0 c 1
 46 0 l 1x6c
 46 861 l 1
EndSplineSet
EndChar

StartChar: c
Encoding: 99 99 68
Width: 553
Flags: W
HStem: 436 145<252.311 375.013>
VStem: 25 167<201.559 371.729>
LayerCount: 2
Fore
SplineSet
520 500 m 5
 530 466 528 406 520 385 c 5
 394 399 l 1
 386 414 l 2
 383 418 380 422 376 426 c 0
 355 436 331 439 303 436 c 0
 238 425 193 368 192 287 c 0
 192 206 238 150 303 139 c 0
 325 135 348 138 368 145 c 0
 401 152 429 171 444 191 c 1
 548 121 l 1
 539 106 523 86 502 65 c 0
 475 39 424 12 361 1 c 0
 331 -6 300 -8 271 -4 c 0
 137 15 25 142 25 286 c 0
 25 430 137 559 271 578 c 1
 286 581 l 1
 305 583 326 582 346 580 c 0
 442 572 506 525 520 500 c 5
EndSplineSet
EndChar

StartChar: d
Encoding: 100 100 69
Width: 663
Flags: W
HStem: -9 145<258.175 406.386> 0 21G<525 629> 438 146<259.352 406.204>
VStem: 30 166<201.458 369.298> 468 161<196.146 376.56 559 861> 525 104<0 51.4677>
LayerCount: 2
Fore
SplineSet
196 287 m 0xb8
 196 196 251 136 333 136 c 0
 404 136 457 183 468 257 c 1
 468 315 l 1
 457 390 404 437 333 438 c 0
 254 438 196 378 196 287 c 0xb8
629 861 m 1
 629 0 l 1
 525 0 l 1x74
 525 7 525 41 521 52 c 1
 476 19 417 -5 338 -9 c 0
 321 -9 303 -9 284 -8 c 0
 144 1 39 123 30 267 c 0
 29 283 29 299 31 315 c 0
 42 447 139 559 267 578 c 0
 287 582 314 584 343 584 c 0
 384 584 428 575 468 559 c 1
 467 861 l 1
 629 861 l 1
EndSplineSet
EndChar

StartChar: e
Encoding: 101 101 70
Width: 632
Flags: W
HStem: -10 21G<251 402.5> 241 110<197 441> 458 126<250.327 387.905>
VStem: 28 166<191.636 241 351 402.404>
LayerCount: 2
Fore
SplineSet
197 351 m 1
 441 351 l 1
 436 403 388 458 317 458 c 0
 250 458 207 411 197 351 c 1
456 182 m 1
 590 152 l 1
 557 76 480 -10 325 -10 c 0
 177 -10 28 104 28 287 c 0
 28 464 167 584 314 584 c 0
 500 584 600 453 600 241 c 1
 194 241 l 1
 204 178 259 133 324 127 c 0
 375 122 427 143 456 182 c 1
EndSplineSet
EndChar

StartChar: f
Encoding: 102 102 71
Width: 447
Flags: W
HStem: 0 21G<82 243.049> 407 137<2 82 244 360> 680 130<264.137 358>
VStem: 82 162<0 407 544 662.871>
LayerCount: 2
Fore
SplineSet
83 544 m 1
 83 712 127 810 258 828 c 1
 324 832 373 809 394 810 c 1
 358 679 l 1
 345 678 320 685 295 680 c 0
 251 672 244 618 244 544 c 1
 360 544 l 1
 360 407 l 1
 244 407 l 1
 243 0 l 1
 82 0 l 1
 82 407 l 1
 2 407 l 1
 2 544 l 1
 83 544 l 1
EndSplineSet
EndChar

StartChar: g
Encoding: 103 103 72
Width: 659
Flags: W
HStem: -253 148<213.42 396.675> -1 146<256.522 405.502> 446 146<258.855 414.408>
VStem: 26 168<210.208 379.866> 467 159<207.438 396.866>
LayerCount: 2
Fore
SplineSet
194 296 m 0
 194 205 249 145 331 145 c 0
 397 145 449 186 464 252 c 0
 466 265 467 278 467 292 c 2
 467 330 l 2
 467 335 467 341 466 347 c 0
 456 403 413 446 331 446 c 0
 252 446 194 387 194 296 c 0
516 535 m 1
 518 548 518 565 518 569 c 1
 626 569 l 1
 626 23 l 2
 626 -174 486 -252 322 -253 c 0
 226 -253 121 -232 68 -152 c 1
 152 -47 l 1
 191 -80 250 -107 323 -105 c 0
 380 -104 448 -75 459 1 c 0
 463 17 464 34 465 52 c 1
 426 17 376 1 320 -1 c 0
 309 -1 297 -1 286 0 c 0
 138 8 26 142 26 296 c 0
 26 449 139 582 286 592 c 1
 335 592 l 1
 399 590 465 575 516 535 c 1
EndSplineSet
EndChar

StartChar: h
Encoding: 104 104 73
Width: 631
Flags: W
HStem: 0 21G<48 210 433.939 595> 447 138<262.587 390.884> 821 20G<48 210>
VStem: 48 162<0 397.218 528 841> 434 161<0 401.019>
LayerCount: 2
Fore
SplineSet
210 841 m 1
 210 528 l 1
 249 562 299 585 351 585 c 0
 358 585 366 585 373 583 c 0
 469 571 571 499 589 391 c 0
 593 372 595 353 595 331 c 2
 595 0 l 1
 434 0 l 1
 433 327 l 2
 433 395 392 447 325 447 c 0
 261 447 210 395 210 327 c 2
 210 0 l 1
 48 0 l 1
 48 841 l 1
 210 841 l 1
EndSplineSet
EndChar

StartChar: i
Encoding: 105 105 74
Width: 266
Flags: W
HStem: 0 21G<52 215> 558 20G<52 215> 647 160<76.2271 197.06>
VStem: 52 163<0 578 662.362 783.678> 68 144<661.939 755.407>
LayerCount: 2
Fore
SplineSet
54 757 m 1xe8
 65 784 99 807 136 807 c 0
 158 807 180 801 198 792 c 1
 207 773 212 751 212 727 c 0
 212 703 207 681 198 661 c 1
 178 652 154 647 130 647 c 0
 107 647 86 652 68 661 c 1
 60 690 54 723 54 757 c 1xe8
52 0 m 1xf0
 52 578 l 1
 215 578 l 1
 215 0 l 1
 52 0 l 1xf0
EndSplineSet
EndChar

StartChar: j
Encoding: 106 106 75
Width: 320
Flags: W
HStem: 558 20G<121 283> 645 161<144.948 265.106>
VStem: 121 161<11.2578 578 661.362 782.415> 138 143<660.894 753.453>
LayerCount: 2
Fore
SplineSet
121 578 m 1xe0
 283 578 l 1
 282 98 l 2
 282 -55 216 -161 45 -165 c 1
 27 -145 -4 -54 12 -28 c 1
 64 -18 121 -13 121 95 c 2
 121 578 l 1xe0
123 755 m 1
 134 783 167 806 205 806 c 0
 227 806 248 800 266 791 c 1
 275 772 281 749 281 726 c 0
 281 702 275 679 266 660 c 1
 247 651 223 645 199 645 c 0
 177 645 156 651 138 660 c 1xd0
 129 689 123 722 123 755 c 1
EndSplineSet
EndChar

StartChar: k
Encoding: 107 107 76
Width: 635
Flags: W
HStem: 0 21G<48 210 418.735 655>
VStem: 48 162<0 226 366 868>
LayerCount: 2
Fore
SplineSet
624 575 m 1
 356 295 l 1
 655 0 l 1
 439 0 l 1
 210 226 l 1
 210 0 l 1
 48 0 l 1
 48 868 l 1
 210 868 l 1
 210 366 l 1
 407 575 l 1
 624 575 l 1
EndSplineSet
EndChar

StartChar: l
Encoding: 108 108 77
Width: 313
Flags: W
HStem: 0 21G<180.5 270> 828 20G<23 184.107>
VStem: 26 161<193.791 848>
LayerCount: 2
Fore
SplineSet
261 0 m 1
 100 4 32 91 26 232 c 0
 26 249 25 266 25 284 c 2
 23 848 l 1
 184 848 l 1
 187 288 l 2
 187 256 192 231 199 212 c 0
 211 160 270 154 294 153 c 1
 312 132 279 20 261 0 c 1
EndSplineSet
EndChar

StartChar: m
Encoding: 109 109 78
Width: 972
Flags: W
HStem: 0 21G<47 213.059 411.94 575 775 936> 442 142<246.536 378.105 609.58 734.657>
VStem: 47 166<0 407.522> 412 163<0 406.749> 775 161<0 400.242>
LayerCount: 2
Fore
SplineSet
575 0 m 5
 412 0 l 1
 411 334 l 1
 407 408 374 442 313 442 c 0
 252 442 217 408 214 338 c 1
 213 0 l 1
 47 0 l 1
 47 579 l 1
 187 579 l 1
 187 551 l 1
 220 571 260 584 313 584 c 0
 386 584 446 568 493 509 c 1
 546 568 600 584 673 584 c 0
 827 585 927 494 934 357 c 0
 935 343 936 328 936 313 c 2
 936 0 l 1
 775 0 l 1
 775 270 l 2
 775 294 774 316 772 338 c 0
 767 408 734 441 673 442 c 0
 612 442 579 408 574 335 c 1
 575 0 l 5
EndSplineSet
EndChar

StartChar: n
Encoding: 110 110 79
Width: 637
Flags: W
HStem: 0 21G<47 213 439.933 601> 442 142<255.942 394.06>
VStem: 47 166<0 397.713> 440 161<0 394.515>
LayerCount: 2
Fore
SplineSet
213 0 m 1
 47 0 l 1
 47 579 l 1
 187 579 l 1
 187 545 l 1
 224 569 270 584 326 584 c 0
 497 585 601 484 600 324 c 1
 601 0 l 1
 440 0 l 1
 439 299 l 2
 439 396 403 442 326 442 c 0
 259 442 220 404 215 329 c 0
 213 313 213 295 213 276 c 2
 213 0 l 1
EndSplineSet
EndChar

StartChar: o
Encoding: 111 111 80
Width: 662
Flags: W
HStem: -10 149<253.391 400.512> 435 149<253.965 401.528>
VStem: 25 164<206.814 367.062> 466 164<206.938 366.886>
LayerCount: 2
Fore
SplineSet
189 287 m 0
 189 201 248 138 327 139 c 0
 407 139 466 201 466 287 c 0
 466 373 407 435 327 435 c 0
 248 435 189 373 189 287 c 0
25 287 m 0
 25 443 165 584 328 584 c 0
 492 584 630 442 630 287 c 0
 630 131 492 -10 328 -10 c 0
 164 -10 25 131 25 287 c 0
EndSplineSet
EndChar

StartChar: p
Encoding: 112 112 81
Width: 663
Flags: W
HStem: -236 21G<28 190> -10 146<248.959 395.975> 438 145<248.709 396.183>
VStem: 28 160<-236 15 198.195 374.589> 460 166<203.711 374.507>
LayerCount: 2
Fore
SplineSet
188 280 m 2
 188 191 248 136 323 136 c 0
 402 136 460 196 460 288 c 0
 460 378 405 438 323 438 c 0
 246 437 188 382 188 292 c 2
 188 280 l 2
319 583 m 4
 563 583 626 375 626 281 c 4
 626 87 491 -10 337 -10 c 4
 292 -10 238 -2 189 15 c 1
 190 -236 l 1
 28 -236 l 1
 28 473 l 1
 43 489 63 505 87 519 c 1
 93 529 100 511 114 515 c 1
 161 552 229 583 319 583 c 4
EndSplineSet
EndChar

StartChar: q
Encoding: 113 113 82
Width: 663
Flags: W
HStem: -236 21G<464 626> -10 146<258.025 405.041> 438 145<257.817 405.291>
VStem: 28 166<203.711 374.507> 466 160<-236 15 198.195 374.589>
LayerCount: 2
Fore
SplineSet
466 280 m 6
 466 292 l 6
 466 382 408 437 331 438 c 4
 249 438 194 378 194 288 c 4
 194 196 252 136 331 136 c 4
 406 136 466 191 466 280 c 6
335 583 m 4
 425 583 493 552 540 515 c 5
 554 511 561 529 567 519 c 5
 591 505 611 489 626 473 c 5
 626 -236 l 5
 464 -236 l 5
 465 15 l 5
 416 -2 362 -10 317 -10 c 4
 163 -10 28 87 28 281 c 4
 28 375 91 583 335 583 c 4
EndSplineSet
EndChar

StartChar: r
Encoding: 114 114 83
Width: 511
Flags: W
HStem: 0 21G<47 209> 421 146<363.842 441> 557 20G<47 209>
VStem: 47 162<0 378.765 508 577>
LayerCount: 2
Fore
SplineSet
209 577 m 1xb0
 209 508 l 1
 230 543 295 582 363 585 c 0
 381 585 397 584 411 583 c 0
 449 577 473 567 483 567 c 1
 441 421 l 1xd0
 431 421 419 423 405 425 c 0
 377 430 345 435 309 429 c 0
 230 418 209 343 209 299 c 2
 209 0 l 1
 47 0 l 1
 47 577 l 1
 209 577 l 1xb0
EndSplineSet
EndChar

StartChar: s
Encoding: 115 115 84
Width: 522
Flags: W
HStem: -9 135<163.411 315.061> 454 129<213.206 352.446>
VStem: 47 158<383.902 444.314>
LayerCount: 2
Fore
SplineSet
119 184 m 1
 154 144 195 126 248 126 c 4
 302 126 326 147 326 172 c 0
 326 175 324 177 321 179 c 0
 297 245 48 262 47 404 c 0
 47 486 133 583 246 583 c 4
 331 583 427 545 479 476 c 1
 386 409 l 1
 347 443 311 454 266 454 c 4
 222 454 205 433 205 410 c 0
 205 345 494 338 493 176 c 0
 493 78 384 -9 264 -9 c 4
 167 -9 61 36 18 115 c 1
 119 184 l 1
EndSplineSet
EndChar

StartChar: t
Encoding: 116 116 85
Width: 404
Flags: W
HStem: 10 142<255.572 341> 424 137<-2 78 240 351>
VStem: 78 162<164.705 424 561 738>
LayerCount: 2
Fore
SplineSet
78 561 m 1
 78 738 l 1
 240 738 l 1
 240 561 l 1
 351 561 l 1
 351 424 l 1
 240 424 l 1
 240 265 l 2
 240 252 240 241 241 230 c 0
 243 185 255 161 278 154 c 0
 301 145 326 152 341 152 c 1
 366 10 l 1
 346 11 296 -5 240 0 c 0
 117 14 84 105 80 200 c 0
 79 220 79 241 79 262 c 2
 78 424 l 1
 -2 424 l 1
 -2 561 l 1
 78 561 l 1
EndSplineSet
EndChar

StartChar: u
Encoding: 117 117 86
Width: 623
Flags: W
HStem: -10 142<237.69 383.854>
VStem: 37 162<172.039 575> 425 161<172.039 575>
LayerCount: 2
Fore
SplineSet
199 575 m 1
 199 313 l 1
 198 285 199 258 200 233 c 0
 206 167 243 132 312 132 c 0
 381 132 418 167 423 233 c 0
 424 258 425 285 425 313 c 2
 425 575 l 1
 587 575 l 1
 586 264 l 2
 586 244 586 226 584 208 c 0
 574 75 469 -10 312 -10 c 0
 143 -9 37 83 37 239 c 2
 37 575 l 1
 199 575 l 1
EndSplineSet
EndChar

StartChar: v
Encoding: 118 118 87
Width: 677
Flags: W
HStem: 0 21G<271.33 398.6>
LayerCount: 2
Fore
SplineSet
188 575 m 1
 335 241 l 1
 480 575 l 1
 665 575 l 1
 389 0 l 1
 281 0 l 1
 3 575 l 1
 188 575 l 1
EndSplineSet
EndChar

StartChar: w
Encoding: 119 119 88
Width: 983
Flags: W
HStem: 0 21G<234.889 364.224 611.776 741.076> 557 20G<9 195.238 423.746 551.317 779.825 966>
LayerCount: 2
Fore
SplineSet
356 0 m 1
 243 0 l 1
 9 577 l 1
 188 577 l 1
 302 262 l 1
 432 577 l 1
 543 577 l 1
 674 262 l 1
 787 577 l 1
 966 577 l 1
 733 0 l 1
 620 0 l 1
 488 321 l 1
 356 0 l 1
EndSplineSet
EndChar

StartChar: x
Encoding: 120 120 89
Width: 665
Flags: W
HStem: 0 21G<-15 200.824 457.176 672> 557 20G<12 222.641 435.359 646>
LayerCount: 2
Fore
SplineSet
672 0 m 1
 473 0 l 1
 329 182 l 1
 185 0 l 1
 -15 0 l 1
 228 300 l 1
 12 577 l 1
 207 577 l 1
 329 421 l 1
 451 577 l 1
 646 577 l 1
 429 300 l 1
 672 0 l 1
EndSplineSet
EndChar

StartChar: y
Encoding: 121 121 90
Width: 652
Flags: W
HStem: -252 21G<136.087 269.5>
LayerCount: 2
Fore
SplineSet
459 575 m 1
 640 575 l 1
 455 144 369 -43 170 -252 c 1
 53 -183 l 1
 145 -88 197 25 208 142 c 1
 181 191 l 1
 -4 575 l 1
 177 575 l 1
 324 271 l 1
 459 575 l 1
EndSplineSet
EndChar

StartChar: z
Encoding: 122 122 91
Width: 609
Flags: W
HStem: 0 137<281 571> 438 137<50 309>
LayerCount: 2
Fore
SplineSet
605 575 m 1
 281 137 l 1
 571 137 l 1
 571 0 l 1
 -14 0 l 1
 309 438 l 1
 50 438 l 1
 50 575 l 1
 605 575 l 1
EndSplineSet
EndChar

StartChar: braceleft
Encoding: 123 123 92
Width: 372
Flags: W
HStem: -152 121<170.74 345> 717 121<170.74 345>
LayerCount: 2
Fore
SplineSet
37 838 m 1
 345 838 l 1
 345 717 l 1
 179 717 l 1
 0 370 0 310 179 -31 c 1
 345 -31 l 1
 345 -152 l 1
 37 -152 l 1
 0 0 -24 138 -79 309 c 1
 -224 398 l 1
 -77 441 l 1
 -24 582 0 698 37 838 c 1
EndSplineSet
EndChar

StartChar: bar
Encoding: 124 124 93
Width: 251
Flags: W
HStem: 823 20G<40 188>
VStem: 40 148<-90 843>
LayerCount: 2
Fore
SplineSet
40 -90 m 1
 40 843 l 1
 188 843 l 1
 188 -90 l 1
 40 -90 l 1
EndSplineSet
EndChar

StartChar: braceright
Encoding: 125 125 94
Width: 372
Flags: W
HStem: -152 121<-224 -49.7405> 717 121<-224 -49.7405>
LayerCount: 2
Fore
SplineSet
84 838 m 1
 121 698 145 582 198 441 c 1
 345 398 l 1
 200 309 l 1
 145 138 121 0 84 -152 c 1
 -224 -152 l 1
 -224 -31 l 1
 -58 -31 l 1
 121 310 121 370 -58 717 c 1
 -224 717 l 1
 -224 838 l 1
 84 838 l 1
EndSplineSet
EndChar

StartChar: asciitilde
Encoding: 126 126 95
Width: 622
Flags: W
HStem: 319 140<369.962 452.707> 415 140<161.055 247.436>
LayerCount: 2
Fore
SplineSet
200 555 m 0x40
 293 555 377 459 415 459 c 0
 439 459 450 468 457 489 c 1
 472 512 478 542 478 552 c 1
 591 505 l 1
 591 495 591 485 590 473 c 0
 584 431 521 318 415 319 c 0x80
 309 319 250 415 200 415 c 0
 176 415 165 405 157 385 c 0
 143 362 136 332 135 323 c 1
 22 369 l 1
 22 380 23 390 24 402 c 0
 30 439 90 554 200 555 c 0x40
EndSplineSet
EndChar

StartChar: cedilla
Encoding: 184 184 96
Width: 355
Flags: W
HStem: -254 320
VStem: 23 303
LayerCount: 2
Fore
SplineSet
64 -126 m 1
 81 -144 130 -171 171 -165 c 0
 199 -162 215 -152 218 -139 c 0
 226 -116 206 -86 166 -74 c 1
 144 -72 134 -74 132 -72 c 0
 130 -25 126 22 138 66 c 1
 241 53 l 1
 220 -11 l 1
 218 -11 l 1
 249 -15 326 -54 326 -125 c 0
 326 -189 294 -248 174 -254 c 0
 106 -255 55 -208 23 -199 c 1
 64 -126 l 1
EndSplineSet
EndChar

StartChar: AE
Encoding: 198 198 97
Width: 1252
Flags: W
HStem: 0 154<847 1211> 167 154<469 646> 335 154<847 1162> 669 154<847 1211>
VStem: 647 200<154 167 321 335 489 610>
LayerCount: 2
Fore
SplineSet
647 610 m 1
 469 321 l 1
 646 321 l 1
 647 610 l 1
378 167 m 1
 275 0 l 1
 67 0 l 1
 605 823 l 1
 1211 823 l 1
 1211 669 l 1
 847 669 l 1
 847 489 l 1
 1162 489 l 1
 1162 335 l 1
 847 335 l 1
 847 154 l 1
 1211 154 l 1
 1211 0 l 1
 648 0 l 1
 647 167 l 1
 378 167 l 1
EndSplineSet
EndChar

StartChar: dotlessi
Encoding: 305 305 98
Width: 264
Flags: W
HStem: 0 21G<47 209>
VStem: 47 162<0 575>
LayerCount: 2
Fore
SplineSet
47 0 m 1
 47 575 l 1
 209 575 l 1
 209 0 l 1
 47 0 l 1
EndSplineSet
EndChar

StartChar: circumflex
Encoding: 710 710 99
Width: 434
Flags: W
HStem: 567 248
LayerCount: 2
Fore
SplineSet
-10 619 m 1
 198 815 l 1
 252 796 l 1
 436 619 l 1
 321 567 l 1
 212 656 l 1
 106 567 l 1
 -10 619 l 1
EndSplineSet
EndChar

StartChar: caron
Encoding: 711 711 100
Width: 431
Flags: W
HStem: 567 248
LayerCount: 2
Fore
SplineSet
104 815 m 1
 212 725 l 1
 319 815 l 1
 435 762 l 1
 252 586 l 1
 197 567 l 1
 -11 762 l 1
 104 815 l 1
EndSplineSet
EndChar

StartChar: uni02C9
Encoding: 713 713 101
Width: 440
Flags: W
HStem: 773 129<35 398>
LayerCount: 2
Fore
SplineSet
35 902 m 1
 398 902 l 1
 398 773 l 1
 35 773 l 1
 35 902 l 1
EndSplineSet
EndChar

StartChar: uni02CA
Encoding: 714 714 102
Width: 339
Flags: W
HStem: 746 248
VStem: 2 327
LayerCount: 2
Fore
SplineSet
2 791 m 1
 200 994 l 1
 329 928 l 1
 111 746 l 1
 2 791 l 1
EndSplineSet
EndChar

StartChar: uni02CB
Encoding: 715 715 103
Width: 339
Flags: W
HStem: 746 248
VStem: 2 327
LayerCount: 2
Fore
SplineSet
131 994 m 1
 329 791 l 1
 220 746 l 1
 2 928 l 1
 131 994 l 1
EndSplineSet
EndChar

StartChar: uni02CD
Encoding: 717 717 104
Width: 439
Flags: W
HStem: -156 129<35 397>
LayerCount: 2
Fore
SplineSet
35 -27 m 1
 397 -27 l 1
 397 -156 l 1
 35 -156 l 1
 35 -27 l 1
EndSplineSet
EndChar

StartChar: breve
Encoding: 728 728 105
Width: 455
Flags: W
HStem: 599 104<175.271 271.858>
LayerCount: 2
Fore
SplineSet
301 785 m 1
 424 767 l 1
 418 674 331 598 223 599 c 0
 118 599 30 673 23 767 c 1
 146 785 l 1
 146 769 158 721 200 707 c 0
 207 704 214 703 223 703 c 0
 232 703 240 704 247 707 c 0
 289 721 301 768 301 785 c 1
EndSplineSet
EndChar

StartChar: dotaccent
Encoding: 729 729 106
Width: 290
Flags: W
HStem: 621 166<75.3623 200.514>
VStem: 58 166<636.987 762.985>
LayerCount: 2
Fore
SplineSet
171 787 m 1
 200 776 224 741 224 701 c 0
 224 677 218 655 208 636 c 1
 189 627 166 621 141 621 c 0
 117 621 93 627 74 636 c 1
 64 657 58 681 58 707 c 0
 58 730 64 753 74 771 c 1
 103 781 136 787 171 787 c 1
EndSplineSet
EndChar

StartChar: ring
Encoding: 730 730 107
Width: 352
Flags: W
HStem: 560 81<131.744 212.609> 753 82<132.119 212.926>
VStem: 24 95<653.484 739.626> 226 94<653.375 741.036>
LayerCount: 2
Fore
SplineSet
119 698 m 0
 119 668 143 641 173 641 c 0
 202 641 226 668 226 698 c 0
 226 727 201 753 173 753 c 0
 145 753 119 727 119 698 c 0
24 698 m 0
 24 773 95 834 172 835 c 0
 251 835 320 771 320 697 c 0
 320 624 254 559 172 560 c 0
 91 560 24 623 24 698 c 0
EndSplineSet
EndChar

StartChar: ogonek
Encoding: 731 731 108
Width: 306
Flags: W
HStem: -230 308
VStem: 23 112<-117.703 -30.8651>
LayerCount: 2
Fore
SplineSet
23 -108 m 0
 22 -40 87 55 132 78 c 1
 209 23 l 1
 209 23 132 -31 135 -91 c 0
 135 -108 148 -119 159 -121 c 1
 187 -141 213 -95 216 -84 c 1
 287 -166 l 1
 278 -171 259 -193 229 -210 c 0
 205 -224 178 -231 148 -230 c 0
 88 -227 23 -178 23 -108 c 0
EndSplineSet
EndChar

StartChar: tilde
Encoding: 732 732 109
Width: 473
Flags: W
HStem: 678 116<117.754 198.798>
LayerCount: 2
Fore
SplineSet
159 678 m 0
 107 677 93 604 82 604 c 2
 14 604 l 1
 14 606 l 1
 15 617 17 635 22 656 c 0
 33 715 76 788 146 794 c 0
 153 794 162 794 172 792 c 0
 230 785 278 721 313 713 c 0
 318 710 325 716 331 724 c 1
 358 735 374 775 379 775 c 2
 454 775 l 1
 453 774 l 1
 451 726 415 603 326 592 c 0
 317 591 306 591 294 592 c 0
 234 599 202 677 159 678 c 0
EndSplineSet
EndChar

StartChar: hungarumlaut
Encoding: 733 733 110
Width: 413
Flags: W
HStem: 567 259
LayerCount: 2
Fore
SplineSet
203 611 m 1
 385 826 l 1
 509 766 l 1
 312 567 l 1
 203 611 l 1
-10 611 m 1
 171 826 l 1
 295 766 l 1
 99 567 l 1
 -10 611 l 1
EndSplineSet
EndChar

StartChar: cent
Encoding: 162 162 112
Width: 553
Flags: W
VStem: 25 167<201.429 372.448> 247 97<-66 -9.125> 260 97<602.364 652>
LayerCount: 2
Fore
SplineSet
520 500 m 1xa0
 530 466 528 406 520 385 c 1
 394 399 l 1
 386 414 l 2
 383 418 380 422 376 426 c 0
 355 436 331 439 303 436 c 0
 238 425 193 368 192 287 c 0
 192 206 238 150 303 139 c 0
 325 135 348 138 368 145 c 0
 401 152 429 171 444 191 c 1
 548 121 l 1
 539 106 523 86 502 65 c 0
 475 39 424 12 361 1 c 0
 358 0 355 0 352 -1 c 1
 344 -66 l 1
 247 -106 l 1xc0
 244 1 l 1
 122 32 25 152 25 286 c 0
 25 422 125 545 249 574 c 1
 260 652 l 5
 357 692 l 5
 361 578 l 1
 449 567 507 524 520 500 c 1xa0
EndSplineSet
EndChar
